<svg width="136" height="136" viewBox="0 0 136 136" fill="none" xmlns="http://www.w3.org/2000/svg">
<rect width="136" height="136" rx="30" fill="#e0524f"/>
<g transform="translate(25.15 25.15) scale(0.63)" fill="#ffffff">
<path d="M81.7128 59.8564C86.1311 67.5091 83.5091 77.2945 75.8564 81.7128C68.2037 86.1311 58.4183 83.5091 54 75.8564C49.5817 68.2037 52.2037 58.4183 59.8564 54C67.5091 49.5817 77.2945 52.2037 81.7128 59.8564Z"/>
<path d="M37.1291 7.41197C51.5553 0.0614433 68.1306 -1.90087 83.8742 1.87876C99.6177 5.65843 113.496 14.9316 123.013 28.0301L110.07 37.4354C102.792 27.4188 92.1789 20.3268 80.1398 17.4364C68.1006 14.546 55.4246 16.0468 44.3928 21.6678C33.3609 27.2888 24.6963 36.6616 19.9582 48.1004C15.2201 59.5393 14.7191 72.2939 18.5451 84.0692C22.3712 95.8444 30.2736 105.868 40.8303 112.337C51.3871 118.806 63.906 121.297 76.135 119.36C88.3638 117.423 99.5002 111.186 107.541 101.771C113.833 94.4045 117.907 85.4699 119.381 75.9999H68.0002V59.9999H136V67.9999C136 84.1907 130.223 99.8503 119.708 112.162C109.193 124.474 94.6295 132.63 78.6379 135.163C62.6462 137.696 46.275 134.439 32.4699 125.979C18.6651 117.52 8.33162 104.412 3.32831 89.0135C-1.67498 73.615 -1.02003 56.9359 5.17597 41.9774C11.372 27.0188 22.7028 14.7625 37.1291 7.41197Z"/>
</g>
</svg>
